<svg xmlns="http://www.w3.org/2000/svg" viewBox="0 0 108.04 76.3"><defs><style>.cls-1{fill:#11703b;}.cls-2{fill:#fec555;}.cls-3{font-size:26.22px;fill:#fff;font-family:ProductSans-BlackItalic, Product Sans Black;font-weight:800;font-style:italic;}.cls-4{letter-spacing:-0.02em;}.cls-5{letter-spacing:-0.01em;}</style></defs><g id="Layer_2" data-name="Layer 2"><g id="Layer_1-2" data-name="Layer 1"><path class="cls-1" d="M88.66,57.61A9.35,9.35,0,1,0,98,67,9.46,9.46,0,0,0,88.66,57.61Z"/><path class="cls-1" d="M105.11,13c-.18,0-.45-.09-.72-.09H47.77l-.9-6a8.06,8.06,0,0,0-8-6.92H31.59a3.6,3.6,0,1,0,0,7.19h7.28a1,1,0,0,1,.9.81l5.57,37.93a9.85,9.85,0,0,0,9.71,8.35H92.43a10,10,0,0,0,9.71-7.91L108,17.17A3.56,3.56,0,0,0,105.11,13Z"/><path class="cls-1" d="M65.74,66.51a9.29,9.29,0,0,0-9.26-8.9,9.39,9.39,0,0,0-9,9.7,9.21,9.21,0,0,0,9.16,8.9h.18A9.32,9.32,0,0,0,65.74,66.51Z"/><rect class="cls-2" x="8.01" y="24.2" width="27.5" height="3.73" rx="1.86"/><rect class="cls-2" y="32.32" width="38.21" height="3.73" rx="1.86"/><rect class="cls-2" x="22.97" y="40.44" width="16.9" height="3.73" rx="1.86"/><text class="cls-3" transform="translate(48.55 42.49)"><tspan class="cls-4"> </tspan><tspan class="cls-5" x="5.24" y="0">Q</tspan><tspan x="26.7" y="0">C</tspan></text></g></g></svg>