<svg xmlns="http://www.w3.org/2000/svg" viewBox="0 0 427.43 99.04"><defs><style>.cls-1{font-size:75.71px;font-family:ProductSans-BlackItalic, Product Sans Black;font-weight:800;font-style:italic;letter-spacing:-0.06em;}.cls-1,.cls-5{fill:#11703b;}.cls-2{letter-spacing:-0.04em;}.cls-3,.cls-4{fill:#fbb040;}.cls-4{letter-spacing:-0.04em;}.cls-6{fill:#fec555;}</style></defs><g id="Layer_2" data-name="Layer 2"><g id="Layer_1-2" data-name="Layer 1"><text class="cls-1" transform="translate(104.44 70.97)"> <tspan class="cls-2" x="12.11" y="0">Quik</tspan><tspan class="cls-3" x="170.28" y="0">C</tspan><tspan class="cls-4" x="221.54" y="0">art</tspan></text><path class="cls-5" d="M88.66,57.61A9.35,9.35,0,1,0,98,67,9.46,9.46,0,0,0,88.66,57.61Z"/><path class="cls-5" d="M105.11,13c-.18,0-.45-.09-.72-.09H47.77l-.9-6a8.06,8.06,0,0,0-8-6.92H31.59a3.6,3.6,0,1,0,0,7.19h7.28a1,1,0,0,1,.9.81l5.57,37.93a9.85,9.85,0,0,0,9.71,8.35H92.43a10,10,0,0,0,9.71-7.91L108,17.17A3.56,3.56,0,0,0,105.11,13Z"/><path class="cls-5" d="M65.74,66.51a9.29,9.29,0,0,0-9.26-8.9,9.39,9.39,0,0,0-9,9.7,9.21,9.21,0,0,0,9.16,8.9h.18A9.32,9.32,0,0,0,65.74,66.51Z"/><rect class="cls-6" x="8.01" y="24.2" width="27.5" height="3.73" rx="1.86"/><rect class="cls-6" y="32.32" width="38.21" height="3.73" rx="1.86"/><rect class="cls-6" x="22.97" y="40.44" width="16.9" height="3.73" rx="1.86"/><path class="cls-5" d="M58.51,96.35h-1a4.62,4.62,0,0,1-.12-1.14,3,3,0,0,1-2.74,1.27c-2.58,0-4-2-4-4.49s1.48-4.69,4.2-4.69c2.11,0,3.43,1.16,3.67,2.74H57.24a2.23,2.23,0,0,0-2.38-1.65c-2,0-2.79,1.63-2.79,3.53s.78,3.46,2.75,3.46,2.4-1.29,2.4-2.67v-.09H54.81V91.5h3.7Z"/><path class="cls-5" d="M60.39,91.59c0-.86,0-1.39,0-1.78h1.24c0,.18,0,.72,0,1.3a2.26,2.26,0,0,1,2.18-1.45V90.9c-1.34,0-2.18.66-2.18,2.34v3.11H60.39Z"/><path class="cls-5" d="M70.62,93.07c0,1.9-1.1,3.44-3.11,3.44s-3.05-1.45-3.05-3.41,1.13-3.44,3.12-3.44S70.62,91,70.62,93.07Zm-4.87,0c0,1.4.68,2.39,1.8,2.39s1.78-.94,1.78-2.38-.64-2.4-1.8-2.4S65.75,91.61,65.75,93.08Z"/><path class="cls-5" d="M77.37,94.33a2.62,2.62,0,0,1-2.75,2.18c-1.84,0-2.94-1.32-2.94-3.39,0-1.86,1.07-3.46,3-3.46a2.46,2.46,0,0,1,2.66,2.21H76.13a1.38,1.38,0,0,0-1.45-1.18c-1.09,0-1.71,1-1.71,2.39s.61,2.4,1.68,2.4a1.45,1.45,0,0,0,1.47-1.15Z"/><path class="cls-5" d="M79.58,93.32c0,1.24.63,2.15,1.7,2.15a1.41,1.41,0,0,0,1.49-1H84a2.7,2.7,0,0,1-2.8,2c-2.08,0-2.93-1.66-2.93-3.35,0-2,1-3.5,3-3.5s2.84,1.68,2.84,3.12a4.61,4.61,0,0,1,0,.54Zm3.3-.85c0-1-.51-1.84-1.58-1.84s-1.58.76-1.68,1.84Z"/><path class="cls-5" d="M85.56,91.59c0-.86,0-1.39,0-1.78h1.24c0,.18,0,.72,0,1.3A2.28,2.28,0,0,1,89,89.66V90.9c-1.34,0-2.19.66-2.19,2.34v3.11H85.56Z"/><path class="cls-5" d="M90.11,86.93h1.26v1.45H90.11Zm0,2.88h1.26v6.54H90.11Z"/><path class="cls-5" d="M94.07,93.32c0,1.24.62,2.15,1.69,2.15a1.42,1.42,0,0,0,1.5-1h1.27a2.71,2.71,0,0,1-2.8,2c-2.08,0-2.94-1.66-2.94-3.35,0-2,1-3.5,3-3.5s2.84,1.68,2.84,3.12a4.61,4.61,0,0,1,0,.54Zm3.3-.85c0-1-.51-1.84-1.59-1.84s-1.57.76-1.67,1.84Z"/><path class="cls-5" d="M100.83,94.46a1.42,1.42,0,0,0,1.53,1.08c.91,0,1.26-.38,1.26-.94s-.3-.83-1.49-1.12c-1.92-.47-2.3-1.06-2.3-2s.68-1.87,2.42-1.87,2.43,1,2.51,1.9h-1.21a1.23,1.23,0,0,0-1.36-1c-.85,0-1.11.41-1.11.81s.26.68,1.43,1c2,.48,2.4,1.16,2.4,2.13,0,1.13-.89,2-2.59,2s-2.58-.88-2.74-2.05Z"/><path class="cls-5" d="M110.23,94.46a1.43,1.43,0,0,0,1.54,1.08c.9,0,1.25-.38,1.25-.94s-.3-.83-1.48-1.12c-1.92-.47-2.31-1.06-2.31-2s.68-1.87,2.42-1.87,2.43,1,2.51,1.9H113a1.22,1.22,0,0,0-1.35-1c-.86,0-1.12.41-1.12.81s.26.68,1.43,1c2,.48,2.4,1.16,2.4,2.13,0,1.13-.89,2-2.59,2s-2.58-.88-2.74-2.05Z"/><path class="cls-5" d="M115.62,96.35V86.93h1.26v9.42Z"/><path class="cls-5" d="M118.75,86.93H120v1.45h-1.27Zm0,2.88H120v6.54h-1.27Z"/><path class="cls-5" d="M127.44,86.93v7.59c0,.61,0,1.21,0,1.83h-1.21a7.46,7.46,0,0,1-.06-.88,2,2,0,0,1-2,1c-1.68,0-2.72-1.36-2.72-3.36s1.12-3.49,2.94-3.49c1.11,0,1.63.44,1.8.79V86.93Zm-4.69,6.18c0,1.52.7,2.34,1.7,2.34,1.48,0,1.78-1.11,1.78-2.44s-.28-2.3-1.7-2.3C123.42,90.71,122.75,91.59,122.75,93.11Z"/><path class="cls-5" d="M130.12,93.32c0,1.24.63,2.15,1.7,2.15a1.41,1.41,0,0,0,1.49-1h1.27a2.69,2.69,0,0,1-2.8,2c-2.07,0-2.93-1.66-2.93-3.35,0-2,1-3.5,3-3.5s2.85,1.68,2.85,3.12a4.61,4.61,0,0,1,0,.54Zm3.3-.85c0-1-.51-1.84-1.58-1.84s-1.57.76-1.68,1.84Z"/><path class="cls-5" d="M139.26,86.93h1.26v1.45h-1.26Zm0,2.88h1.26v6.54h-1.26Z"/><path class="cls-5" d="M142.4,91.46c0-.56,0-1.14,0-1.65h1.23c0,.19,0,.83,0,1a2,2,0,0,1,2-1.18c1.25,0,2.19.78,2.19,2.5v4.19H146.6v-4c0-.94-.35-1.58-1.31-1.58-1.15,0-1.63.84-1.63,2.13v3.49H142.4Z"/><path class="cls-5" d="M148.83,89.81h1.11v-1.9h1.26v1.9h1.42v1H151.2v3.71c0,.61.16.91.74.91a2.55,2.55,0,0,0,.54,0v.92a3.2,3.2,0,0,1-1,.12c-1.06,0-1.51-.55-1.51-1.65v-4h-1.11Z"/><path class="cls-5" d="M159.44,93.07c0,1.9-1.1,3.44-3.11,3.44s-3.05-1.45-3.05-3.41,1.13-3.44,3.13-3.44C158.24,89.66,159.44,91,159.44,93.07Zm-4.86,0c0,1.4.68,2.39,1.8,2.39s1.77-.94,1.77-2.38-.64-2.4-1.8-2.4S154.58,91.61,154.58,93.08Z"/><path class="cls-5" d="M164.63,89.81c1,3,1.57,4.76,1.73,5.41h0c.2-.73.65-2.22,1.66-5.41h1.27L167,96.63c-.66,1.91-1.16,2.41-2.54,2.41a6.66,6.66,0,0,1-.73,0V97.92a4.28,4.28,0,0,0,.52,0c.8,0,1.12-.33,1.48-1.35l-2.44-6.79Z"/><path class="cls-5" d="M176.07,93.07c0,1.9-1.1,3.44-3.12,3.44s-3-1.45-3-3.41S171,89.66,173,89.66C174.87,89.66,176.07,91,176.07,93.07Zm-4.87,0c0,1.4.68,2.39,1.8,2.39s1.77-.94,1.77-2.38-.64-2.4-1.8-2.4S171.2,91.61,171.2,93.08Z"/><path class="cls-5" d="M182.83,94.45c0,.63,0,1.48,0,1.9h-1.22a9.18,9.18,0,0,1-.05-.93,1.93,1.93,0,0,1-1.95,1.09c-1.14,0-2.16-.6-2.16-2.4v-4.3h1.25v4c0,.83.26,1.59,1.29,1.59s1.57-.62,1.57-2.19V89.81h1.26Z"/><path class="cls-5" d="M184.7,91.59c0-.86,0-1.39,0-1.78h1.24c0,.18,0,.72,0,1.3a2.28,2.28,0,0,1,2.19-1.45V90.9c-1.34,0-2.19.66-2.19,2.34v3.11H184.7Z"/><path class="cls-5" d="M193.81,86.93v3.81a2.19,2.19,0,0,1,2-1.08c1.08,0,2.2.6,2.2,2.51v4.18h-1.25v-4c0-1.06-.44-1.65-1.36-1.65-1.14,0-1.6.77-1.6,2.07v3.55h-1.26V86.93Z"/><path class="cls-5" d="M205.61,93.07c0,1.9-1.1,3.44-3.11,3.44s-3.05-1.45-3.05-3.41,1.13-3.44,3.12-3.44S205.61,91,205.61,93.07Zm-4.87,0c0,1.4.68,2.39,1.8,2.39s1.78-.94,1.78-2.38-.64-2.4-1.8-2.4S200.74,91.61,200.74,93.08Z"/><path class="cls-5" d="M212.38,94.45c0,.63,0,1.48,0,1.9h-1.23a9.18,9.18,0,0,1,0-.93,1.92,1.92,0,0,1-1.94,1.09c-1.15,0-2.17-.6-2.17-2.4v-4.3h1.26v4c0,.83.26,1.59,1.28,1.59s1.57-.62,1.57-2.19V89.81h1.27Z"/><path class="cls-5" d="M214.86,94.46a1.41,1.41,0,0,0,1.53,1.08c.9,0,1.26-.38,1.26-.94s-.3-.83-1.49-1.12c-1.92-.47-2.3-1.06-2.3-2s.68-1.87,2.42-1.87,2.43,1,2.51,1.9h-1.22a1.21,1.21,0,0,0-1.35-1c-.85,0-1.11.41-1.11.81s.26.68,1.43,1c2,.48,2.4,1.16,2.4,2.13,0,1.13-.89,2-2.59,2s-2.58-.88-2.74-2.05Z"/><path class="cls-5" d="M221.18,93.32c0,1.24.63,2.15,1.7,2.15a1.43,1.43,0,0,0,1.5-1h1.26a2.69,2.69,0,0,1-2.8,2c-2.07,0-2.93-1.66-2.93-3.35,0-2,1-3.5,3-3.5s2.84,1.68,2.84,3.12a4.61,4.61,0,0,1,0,.54Zm3.3-.85c0-1-.51-1.84-1.58-1.84s-1.57.76-1.68,1.84Z"/><path class="cls-5" d="M230.52,96.35V90.82h-1v-1h1v-.74c0-1.23.51-2.27,1.95-2.27a3.05,3.05,0,0,1,.74.09v1a2.33,2.33,0,0,0-.53-.06c-.65,0-.89.37-.89,1.27v.66h1.27v1h-1.27v5.53Z"/><path class="cls-5" d="M238.92,94.88a10.54,10.54,0,0,0,.09,1.47H237.8a3.29,3.29,0,0,1-.1-.81,2,2,0,0,1-2,1,2,2,0,0,1-2.21-2c0-1.47,1.16-2.14,3.1-2.14h1.08v-.53c0-.55-.18-1.21-1.33-1.21s-1.21.5-1.32,1h-1.22c.09-.95.68-2,2.58-2,1.63,0,2.53.66,2.53,2.16Zm-1.23-1.67h-1c-1.26,0-1.9.35-1.9,1.22A1.08,1.08,0,0,0,236,95.54c1.49,0,1.69-1,1.69-2.13Z"/><path class="cls-5" d="M241.41,94.46a1.42,1.42,0,0,0,1.53,1.08c.91,0,1.26-.38,1.26-.94s-.3-.83-1.49-1.12c-1.92-.47-2.3-1.06-2.3-2s.68-1.87,2.42-1.87,2.43,1,2.51,1.9h-1.21a1.23,1.23,0,0,0-1.36-1c-.85,0-1.11.41-1.11.81s.26.68,1.43,1c2,.48,2.4,1.16,2.4,2.13,0,1.13-.89,2-2.59,2s-2.58-.88-2.74-2.05Z"/><path class="cls-5" d="M246,89.81h1.1v-1.9h1.26v1.9h1.42v1H248.4v3.71c0,.61.16.91.74.91a2.55,2.55,0,0,0,.54,0v.92a3.14,3.14,0,0,1-1,.12c-1.07,0-1.52-.55-1.52-1.65v-4H246Z"/><path class="cls-5" d="M251.76,93.32c0,1.24.62,2.15,1.69,2.15a1.42,1.42,0,0,0,1.5-1h1.27a2.71,2.71,0,0,1-2.8,2c-2.08,0-2.94-1.66-2.94-3.35,0-2,1-3.5,3-3.5s2.84,1.68,2.84,3.12a4.61,4.61,0,0,1,0,.54Zm3.29-.85c0-1-.5-1.84-1.58-1.84s-1.57.76-1.67,1.84Z"/><path class="cls-5" d="M257.74,91.59c0-.86,0-1.39,0-1.78H259c0,.18,0,.72,0,1.3a2.28,2.28,0,0,1,2.19-1.45V90.9c-1.34,0-2.19.66-2.19,2.34v3.11h-1.26Z"/><path class="cls-5" d="M264.79,89.81h1.11v-1.9h1.26v1.9h1.41v1h-1.41v3.71c0,.61.15.91.73.91a2.55,2.55,0,0,0,.54,0v.92a3.14,3.14,0,0,1-1,.12c-1.07,0-1.51-.55-1.51-1.65v-4h-1.11Z"/><path class="cls-5" d="M271,86.93v3.81a2.17,2.17,0,0,1,2-1.08c1.08,0,2.2.6,2.2,2.51v4.18h-1.26v-4c0-1.06-.44-1.65-1.35-1.65-1.14,0-1.6.77-1.6,2.07v3.55h-1.26V86.93Z"/><path class="cls-5" d="M282,94.88a10.54,10.54,0,0,0,.09,1.47h-1.21a3.29,3.29,0,0,1-.1-.81,2,2,0,0,1-2,1,2,2,0,0,1-2.21-2c0-1.47,1.16-2.14,3.1-2.14h1.08v-.53c0-.55-.18-1.21-1.33-1.21s-1.21.5-1.32,1h-1.22c.09-.95.68-2,2.58-2,1.63,0,2.53.66,2.53,2.16Zm-1.24-1.67h-1c-1.26,0-1.91.35-1.91,1.22a1.09,1.09,0,0,0,1.21,1.11c1.5,0,1.69-1,1.69-2.13Z"/><path class="cls-5" d="M283.86,91.46c0-.56,0-1.14,0-1.65h1.22a8.77,8.77,0,0,1,.05,1,2.06,2.06,0,0,1,2-1.18c1.24,0,2.18.78,2.18,2.5v4.19h-1.26v-4c0-.94-.36-1.58-1.32-1.58-1.14,0-1.63.84-1.63,2.13v3.49h-1.26Z"/><path class="cls-5" d="M295,89.81c1,3,1.56,4.76,1.73,5.41h0c.2-.73.65-2.22,1.66-5.41h1.27l-2.32,6.82c-.66,1.91-1.16,2.41-2.54,2.41a6.66,6.66,0,0,1-.73,0V97.92a4.28,4.28,0,0,0,.52,0c.8,0,1.12-.33,1.48-1.35l-2.44-6.79Z"/><path class="cls-5" d="M306.39,93.07c0,1.9-1.1,3.44-3.11,3.44s-3-1.45-3-3.41,1.14-3.44,3.13-3.44C305.19,89.66,306.39,91,306.39,93.07Zm-4.86,0c0,1.4.68,2.39,1.8,2.39s1.77-.94,1.77-2.38-.64-2.4-1.8-2.4S301.53,91.61,301.53,93.08Z"/><path class="cls-5" d="M313.16,94.45c0,.63,0,1.48,0,1.9h-1.23c0-.17,0-.56,0-.93A1.94,1.94,0,0,1,310,96.51c-1.14,0-2.16-.6-2.16-2.4v-4.3H309v4c0,.83.26,1.59,1.29,1.59s1.57-.62,1.57-2.19V89.81h1.26Z"/><path class="cls-5" d="M319,94.46a1.41,1.41,0,0,0,1.53,1.08c.9,0,1.25-.38,1.25-.94s-.29-.83-1.48-1.12c-1.92-.47-2.3-1.06-2.3-2s.68-1.87,2.42-1.87,2.43,1,2.51,1.9h-1.22a1.21,1.21,0,0,0-1.35-1c-.85,0-1.11.41-1.11.81s.25.68,1.43,1c2,.48,2.4,1.16,2.4,2.13,0,1.13-.89,2-2.59,2s-2.58-.88-2.74-2.05Z"/><path class="cls-5" d="M324.34,96.35V86.93h1.27v9.42Z"/><path class="cls-5" d="M327.48,86.93h1.26v1.45h-1.26Zm0,2.88h1.26v6.54h-1.26Z"/><path class="cls-5" d="M336.16,86.93v7.59c0,.61,0,1.21,0,1.83H335c0-.17,0-.64-.06-.88a2,2,0,0,1-2,1c-1.67,0-2.71-1.36-2.71-3.36s1.11-3.49,2.93-3.49c1.12,0,1.63.44,1.8.79V86.93Zm-4.68,6.18c0,1.52.7,2.34,1.7,2.34,1.47,0,1.77-1.11,1.77-2.44s-.28-2.3-1.69-2.3C332.14,90.71,331.48,91.59,331.48,93.11Z"/><path class="cls-5" d="M338.85,93.32c0,1.24.63,2.15,1.69,2.15a1.42,1.42,0,0,0,1.5-1h1.27a2.71,2.71,0,0,1-2.8,2c-2.08,0-2.94-1.66-2.94-3.35,0-2,1-3.5,3-3.5s2.84,1.68,2.84,3.12a4.61,4.61,0,0,1,0,.54Zm3.29-.85c0-1-.5-1.84-1.58-1.84s-1.57.76-1.67,1.84Z"/><path class="cls-5" d="M348,86.93h1.26v1.45H348Zm0,2.88h1.26v6.54H348Z"/><path class="cls-5" d="M351.12,91.46c0-.56,0-1.14,0-1.65h1.22c0,.19.05.83.05,1a2,2,0,0,1,2-1.18c1.24,0,2.18.78,2.18,2.5v4.19h-1.26v-4c0-.94-.36-1.58-1.32-1.58-1.14,0-1.63.84-1.63,2.13v3.49h-1.26Z"/><path class="cls-5" d="M357.56,89.81h1.11v-1.9h1.26v1.9h1.41v1h-1.41v3.71c0,.61.15.91.73.91a2.55,2.55,0,0,0,.54,0v.92a3.14,3.14,0,0,1-1,.12c-1.07,0-1.51-.55-1.51-1.65v-4h-1.11Z"/><path class="cls-5" d="M368.17,93.07c0,1.9-1.1,3.44-3.12,3.44s-3-1.45-3-3.41,1.13-3.44,3.12-3.44S368.17,91,368.17,93.07Zm-4.87,0c0,1.4.68,2.39,1.8,2.39s1.77-.94,1.77-2.38-.63-2.4-1.8-2.4S363.3,91.61,363.3,93.08Z"/><path class="cls-5" d="M374.07,86.93v3.81a2.19,2.19,0,0,1,2-1.08c1.08,0,2.2.6,2.2,2.51v4.18H377v-4c0-1.06-.44-1.65-1.36-1.65-1.14,0-1.6.77-1.6,2.07v3.55h-1.26V86.93Z"/><path class="cls-5" d="M381,93.32c0,1.24.63,2.15,1.7,2.15a1.41,1.41,0,0,0,1.49-1h1.27a2.7,2.7,0,0,1-2.8,2c-2.08,0-2.93-1.66-2.93-3.35,0-2,1-3.5,3-3.5s2.84,1.68,2.84,3.12a4.61,4.61,0,0,1,0,.54Zm3.3-.85c0-1-.51-1.84-1.58-1.84s-1.57.76-1.68,1.84Z"/><path class="cls-5" d="M387,91.59c0-.86,0-1.39,0-1.78h1.24c0,.18,0,.72,0,1.3a2.26,2.26,0,0,1,2.18-1.45V90.9c-1.34,0-2.18.66-2.18,2.34v3.11H387Z"/><path class="cls-5" d="M395,87.43h3.26a4,4,0,0,1,4.22,4.37c0,2.63-1.66,4.55-4.27,4.55H395Zm1.32,7.81h1.8c2,0,3-1.46,3-3.42,0-1.71-.88-3.28-3-3.28h-1.8Z"/><path class="cls-5" d="M411.93,92.64c0-1.63,0-3.32.06-4.28h-.05c-.39,1.52-1.73,5.19-2.72,8h-1.17c-.75-2.31-2.14-6.43-2.54-8h0c.07,1,.1,3,.1,4.51v3.49h-1.24V87.43h2c.95,2.69,2.1,6.14,2.4,7.31h0c.21-.92,1.58-4.69,2.57-7.31h1.92v8.92h-1.29Z"/><path class="cls-5" d="M415.84,94.46a1.41,1.41,0,0,0,1.53,1.08c.9,0,1.25-.38,1.25-.94s-.29-.83-1.48-1.12c-1.92-.47-2.3-1.06-2.3-2s.68-1.87,2.42-1.87,2.43,1,2.51,1.9h-1.22a1.21,1.21,0,0,0-1.35-1c-.85,0-1.11.41-1.11.81s.25.68,1.43,1c2,.48,2.4,1.16,2.4,2.13,0,1.13-.89,2-2.59,2s-2.58-.88-2.74-2.05Z"/></g></g></svg>